<svg xmlns="http://www.w3.org/2000/svg" version="1.1" xmlns:xlink="http://www.w3.org/1999/xlink" xmlns:svgjs="http://svgjs.dev/svgjs" width="2000" height="1500" viewBox="0 0 2000 1500"><rect width="2000" height="1500" fill="#333333"></rect><g transform="matrix(0.4444444444444444,0,0,0.4444444444444444,555.5555555555557,250)"><svg viewBox="0 0 320 360" data-background-color="#333333" preserveAspectRatio="xMidYMid meet" height="2250" width="2000" xmlns="http://www.w3.org/2000/svg" xmlns:xlink="http://www.w3.org/1999/xlink"><g id="tight-bounds" transform="matrix(1,0,0,1,0,0)"><svg viewBox="0 0 320 360" height="360" width="320"><g><svg></svg></g><g><svg viewBox="0 0 320 360" height="360" width="320"><g><path d="M20.961 227.22l3.726 4.658-1.863-6.056c-0.466-2.795-3.726 0.466-1.863 1.398M25.153 224.425c1.397 2.329 2.795 4.658 2.795 6.987 0 3.261 2.795 4.658 5.123 5.589-3.261-3.726-5.124-13.974-7.918-12.576M204.017 26.929c7.918 0 15.371-0.932 23.756 0.931 20.495 5.124 37.729 15.371 49.374 29.811l32.606 52.169c1.397 13.042 4.192 27.482 3.726 43.319 3.261 0 2.795-4.658 6.521-5.59-3.726 9.316-5.59 20.961-6.521 34.469-2.329-7.453 0-18.632 0.466-24.687-3.261 5.124-5.124 1.397-5.124-0.932 0.466-3.726-1.397-3.261-2.795-4.658-5.124-4.658-8.384-9.782-12.11-17.7 2.329-6.055 2.795-14.905-4.658-19.563-2.329-1.397-5.124-3.726-6.521-7.453-1.863-5.124-5.124-11.179-4.193-19.097 0.466-2.329-6.987 5.124-11.179 1.863-18.166-12.576-36.332-27.016-58.224-39.127-11.645 0-20.029-4.192-24.221-9.316-3.726-4.658-0.932-10.713 4.658-11.179 3.261 0 6.987-0.932 9.782 0.932 0.466-1.863 2.329-4.192 4.657-4.192M157.904 16.215l0.932 0.466c4.658 0.932 6.987 7.453 12.11 5.124 0 3.261 0.466 6.521-0.466 8.85-1.397 3.726-5.59 3.726-8.85 3.726-31.208-1.863-49.374 11.179-68.471 22.358-5.124 3.261-10.713 5.59-14.906 9.782-20.029 18.632-41.921 35.866-47.045 70.335l-4.192 38.195c-0.466 4.192-5.124 8.384-4.192 13.508l3.26 22.824c-3.261-3.261-5.124 0.932-4.192 2.795 0.466 1.397 2.329 6.055 5.124 1.863 3.726 6.987 7.453 20.495 12.576 26.55 15.837 18.632 36.332 35.4 53.101 52.169 4.192-0.932 7.453-0.932 8.384-3.727 1.397 2.795-1.397 5.59-3.726 6.056 7.453 4.658 15.837 8.85 27.016 9.781 14.44 0.932 27.948 3.261 40.524 6.522 6.521-1.863 13.042-2.795 20.029-3.261 2.329 0 3.726-3.726 6.521-4.658l0.466-4.658c2.795 4.192 2.329-1.397 0.466-4.192 3.261 2.795 4.192 5.124 5.589 6.987 0-1.397 3.726-6.521 3.727-0.466l0.931-6.055c1.397-0.932 1.863 5.124 3.261 0.931 1.397-4.192 4.192-0.932 6.987-2.329-0.932 1.863-0.466 5.59 2.794 3.261l3.727-3.261c2.329 5.59 6.055 3.261 7.918 2.329 20.495-13.042 40.99-28.413 60.553-43.784l-0.466 6.055 2.329-7.453c2.329 2.329 4.192 0.466 5.124-0.931 2.795-4.658 6.521-9.316 12.577-13.508-7.453 20.029-16.303 35.866-27.482 48.908l-4.658 5.59c0 3.261-0.932 7.453-4.658 7.918-1.863 0.466-5.59-0.932-8.384 1.863-1.397 1.863 3.261 5.59-0.466 2.795-3.261-2.329-6.521 0-10.248 0.932-2.795 0.932 1.863 3.726 2.795 5.589 0.932 1.863 1.863 3.726 1.398 6.056l-5.124-5.59c-6.055 3.261-9.782 9.316-14.906 13.974-2.329 1.863-1.397 5.124-1.397 7.918-3.261 0-6.987-0.932-8.85 0.932-1.397 1.863-0.932 4.658-0.932 7.453-4.658-0.466-5.124-7.453-9.315-6.056-4.192 0.932-8.85 1.397-12.577 3.727 2.795 5.59-4.658 2.329-3.726 3.26-6.987-4.192-13.042-7.453-20.495-4.658-15.837-5.124-35.4-2.795-49.84-0.931 0-2.329 0.466-4.658-0.466-5.124-0.932 2.329-3.726 1.397-3.26 1.397-8.85-6.055-17.7-9.782-27.016-14.905-8.384 0.932-16.303-3.261-18.632-5.59-6.521-6.055-13.974-2.795-20.029-4.192-13.042-3.261-17.7-16.769-19.098-26.084-0.932-4.658-4.658-6.521-6.055-6.056-6.055-19.563-15.371-37.263-22.824-55.429-1.863-4.658-1.397-9.316-1.397-14.44 2.329 0.932 4.658 0.466 4.192-2.794-2.329-15.371-7.918-27.016-13.974-38.195 3.261-15.837 3.726-34.469 11.179-48.443 6.521-12.576 18.632-19.098 27.016-29.811 2.795-3.726 2.795-8.85 5.59-12.11 9.316-9.316 18.632-19.098 28.879-27.482 4.658-3.726 10.247 0 17.234-1.397 2.329-8.384 11.645-15.837 20.495-13.508 3.726 0.932 11.179-8.85 13.508-9.782 3.726-1.397 1.863 3.726 1.863 6.987 8.85-6.987 20.961-10.713 32.14-14.906" fill="#7fc37e" fill-rule="nonzero" stroke="none" stroke-width="1" stroke-linecap="butt" stroke-linejoin="miter" stroke-miterlimit="10" stroke-dasharray="" stroke-dashoffset="0" font-family="none" font-weight="none" font-size="none" text-anchor="none" style="mix-blend-mode: normal" data-fill-palette-color="tertiary"></path></g><g transform="matrix(1,0,0,1,64.00000000000001,154.53008825889276)"><svg viewBox="0 0 191.99999999999997 50.93982348221449" height="50.93982348221449" width="191.99999999999997"><g><svg viewBox="0 0 191.99999999999997 50.93982348221449" height="50.93982348221449" width="191.99999999999997"><g><svg viewBox="0 0 191.99999999999997 50.93982348221449" height="50.93982348221449" width="191.99999999999997"><g><svg viewBox="0 0 191.99999999999997 50.93982348221449" height="50.93982348221449" width="191.99999999999997"><g id="textblocktransform"><svg viewBox="0 0 191.99999999999997 50.93982348221449" height="50.93982348221449" width="191.99999999999997" id="textblock"><g><svg viewBox="0 0 191.99999999999997 50.93982348221449" height="50.93982348221449" width="191.99999999999997"><g transform="matrix(1,0,0,1,0,0)"><svg width="191.99999999999997" viewBox="2.8 -37.95 186.92999999999998 49.6" height="50.93982348221449" data-palette-color="#7fc37e"><path d="M3.05 0.25L3.05 0.25 2.8-2.2 8.5-3.35 6.5-1.15Q6.6-1.7 6.78-2.83 6.95-3.95 7.1-5.1 7.25-6.25 7.25-6.75L7.25-6.75 7.25-28.5Q7.25-28.95 7.13-29.93 7-30.9 6.85-32.02 6.7-33.15 6.55-34.1L6.55-34.1 8.5-32 2.9-32.9 3.15-35.5Q4.1-35.45 5.25-35.4 6.4-35.35 7.43-35.3 8.45-35.25 8.9-35.25L8.9-35.25 20.05-35.25Q20.5-35.25 21.5-35.27 22.5-35.3 23.65-35.38 24.8-35.45 25.75-35.5L25.75-35.5 26.7-34.6 27.05-28.1 24.2-27.85 23.65-30.6Q23.6-31 22.95-31.85 22.3-32.7 21.75-33.2L21.75-33.2 23.4-32.25Q22.65-32.35 21.28-32.45 19.9-32.55 18.55-32.55L18.55-32.55 10.25-32.55 12.1-33.85Q12-32.7 11.85-31.35 11.7-30 11.63-28.83 11.55-27.65 11.55-27L11.55-27 11.55-8.25Q11.55-7 11.65-5.5 11.75-4 11.9-2.7 12.05-1.4 12.2-0.65L12.2-0.65 10.15-2.75 19.2-2.75Q20.7-2.75 22.18-2.98 23.65-3.2 24.3-3.35L24.3-3.35 22.8-2.15Q23.35-2.85 23.95-3.68 24.55-4.5 24.65-5L24.65-5 25.4-8.4 28.1-8.15 27.35-0.7 26.4 0.2Q25.45 0.15 24.28 0.1 23.1 0.05 22.13 0.03 21.15 0 20.7 0L20.7 0 9.75 0Q9.15 0 8 0.03 6.85 0.05 5.53 0.1 4.2 0.15 3.05 0.25ZM23.35-13.6L21-13.3 20.3-18.5 22.1-16.45Q21.55-16.55 20.48-16.68 19.4-16.8 18.28-16.9 17.15-17 16.5-17L16.5-17 10.15-17 10.15-19.7 17.5-19.7Q18.55-19.7 19.95-19.93 21.35-20.15 21.85-20.2L21.85-20.2 20.3-18.2 21-23.45 23.2-23.2 23.2-19Q23.2-16.3 23.35-13.6L23.35-13.6ZM52.4-0.8L51.5 0.15Q51.55 0.15 50.85 0.13 50.15 0.1 49.12 0.08 48.1 0.05 47.2 0.03 46.3 0 45.9 0L45.9 0 34 0 33.7-2.85Q34.6-3.8 35.6-4.95 36.6-6.1 37.42-7.05 38.25-8 38.5-8.4L38.5-8.4 44.7-17.6Q45.05-18.1 45.62-19.15 46.2-20.2 46.87-21.45 47.55-22.7 48.1-23.7L48.1-23.7 48.95-22.25 40.95-22.25Q40.55-22.25 39.82-22.18 39.1-22.1 38.27-22 37.45-21.9 36.7-21.8L36.7-21.8 39-23.55Q38.65-22.75 38.22-21.78 37.8-20.8 37.47-19.95 37.15-19.1 37.1-18.75L37.1-18.75 36.9-16.9 34.1-17.1 34.35-23.9 35.25-24.85Q36.45-24.8 37.82-24.75 39.2-24.7 40-24.7L40-24.7 51.9-24.7 52.25-21.85 47.9-16.35 41.8-7.1Q41.25-6.25 40.65-5.23 40.05-4.2 39.47-3.13 38.9-2.05 38.35-1L38.35-1 37.55-2.45 45.65-2.45Q45.95-2.45 46.75-2.55 47.55-2.65 48.5-2.75 49.45-2.85 50.2-2.9L50.2-2.9 47.9-1.2Q48.25-1.9 48.62-2.75 49-3.6 49.3-4.33 49.6-5.05 49.7-5.35L49.7-5.35 49.95-7.3 52.8-7 52.4-0.8ZM68.84 0.5L68.84 0.5Q65.09 0.5 62.55-1.15 60-2.8 58.72-5.7 57.45-8.6 57.45-12.25L57.45-12.25Q57.45-15.95 58.6-18.85 59.75-21.75 62.15-23.43 64.55-25.1 68.2-25.1L68.2-25.1Q71.7-25.1 73.75-23.65 75.8-22.2 76.72-19.6 77.65-17 77.65-13.6L77.65-13.6 76.84-12 60.65-12 60.65-14.25 75.09-15.35 73.5-13.6Q73.5-14.25 73.52-14.88 73.55-15.5 73.55-16.25L73.55-16.25Q73.55-18.9 72.2-20.8 70.84-22.7 68.05-22.7L68.05-22.7Q66.2-22.7 64.95-21.78 63.7-20.85 63-19.3 62.3-17.75 62-15.98 61.7-14.2 61.7-12.45L61.7-12.45Q61.7-10.8 62.1-9.08 62.5-7.35 63.35-5.85 64.2-4.35 65.47-3.45 66.75-2.55 68.55-2.55L68.55-2.55Q70.9-2.55 73.02-3.28 75.15-4 76.25-4.65L76.25-4.65 77.55-2.45Q77.7-2.6 77.2-2.18 76.7-1.75 75.57-1.13 74.45-0.5 72.77 0 71.09 0.5 68.84 0.5ZM92.49 0.5L92.49 0.5Q87.84 0.5 85.12-2.95 82.39-6.4 82.39-12.4L82.39-12.4Q82.39-16.15 83.69-19.03 84.99-21.9 87.32-23.53 89.64-25.15 92.64-25.15L92.64-25.15Q94.29-25.15 95.67-25 97.04-24.85 98.79-24.48 100.54-24.1 103.34-23.35L103.34-23.35 102.54-20.75Q100.09-21.6 97.87-21.95 95.64-22.3 93.14-22.3L93.14-22.3Q90.19-22.3 88.37-19.53 86.54-16.75 86.54-12.25L86.54-12.25Q86.54-7.75 88.19-5.08 89.84-2.4 92.59-2.4L92.59-2.4Q95.69-2.4 97.44-4.45 99.19-6.5 99.19-10.15L99.19-10.15 99.54-3.75Q99.14-2.8 97.94-1.8 96.74-0.8 95.24-0.15 93.74 0.5 92.49 0.5ZM93.99 11.65L93.99 11.65 93.74 9.2 100.29 8.05 98.39 9.95Q98.44 9.55 98.64 8.55 98.84 7.55 99.02 6.45 99.19 5.35 99.19 4.75L99.19 4.75 99.19-16.95Q99.19-17.95 99.09-19.35 98.99-20.75 98.79-21.85L98.79-21.85 103.34-23.35Q103.29-22.7 103.19-21.38 103.09-20.05 103.02-18.5 102.94-16.95 102.94-15.55L102.94-15.55 102.94 3.25Q102.94 5.35 103.09 7.35 103.24 9.35 103.34 10.15L103.34 10.15 101.49 8.25 106.69 8.75 106.39 11.4 100.54 11.4Q99.99 11.4 98.77 11.45 97.54 11.5 96.24 11.55 94.94 11.6 93.99 11.65ZM119.99 0.55L119.99 0.55Q116.49 0.55 114.77-0.93 113.04-2.4 112.49-5.03 111.94-7.65 111.94-11.05L111.94-11.05 111.94-17.8Q111.94-18.25 111.84-19.13 111.74-20 111.57-21.05 111.39-22.1 111.24-22.95L111.24-22.95 113.04-21.1 108.09-22.1 108.29-24.7 115.09-24.7 116.04-23.8Q115.99-22.75 115.89-21.35 115.79-19.95 115.74-18.6 115.69-17.25 115.69-16.3L115.69-16.3 115.69-9.15Q115.69-6.25 116.79-4.38 117.89-2.5 120.79-2.5L120.79-2.5Q122.94-2.5 124.34-3.65 125.74-4.8 126.47-6.63 127.19-8.45 127.19-10.4L127.19-10.4 127.19-17.8Q127.19-18.25 127.09-19.13 126.99-20 126.84-21.05 126.69-22.1 126.54-22.95L126.54-22.95 128.39-21.15 123.19-22.1 123.39-24.7 130.34-24.7 131.29-23.8Q131.24-22.75 131.17-21.35 131.09-19.95 131.04-18.6 130.99-17.25 130.99-16.3L130.99-16.3 130.99-8.2Q130.99-6.5 131.22-4.78 131.44-3.05 131.59-1.3L131.59-1.3 129.79-3.15 134.99-2.6 134.69 0 128.44 0 127.49-5.55 127.99-4.35Q127.69-3.75 126.82-2.58 125.94-1.4 124.32-0.43 122.69 0.55 119.99 0.55ZM138.04 0.25L138.04 0.25 137.79-2.15 143.39-3.3 141.39-1.45Q141.49-1.85 141.66-2.85 141.84-3.85 142.01-4.98 142.19-6.1 142.19-6.7L142.19-6.7 142.19-17.8Q142.19-18.45 142.06-19.48 141.94-20.5 141.76-21.6 141.59-22.7 141.44-23.45L141.44-23.45 143.39-21.15 137.89-22.1 138.14-24.7 145.34-24.7 146.29-23.8Q146.24-23.05 146.16-21.73 146.09-20.4 146.04-18.95 145.99-17.5 145.99-16.3L145.99-16.3 145.99-8.2Q145.99-6.25 146.14-4.2 146.29-2.15 146.44-1.25L146.44-1.25 144.59-3.1 150.24-2.6 149.89 0 143.54 0Q143.04 0 142.09 0.05 141.14 0.1 140.06 0.15 138.99 0.2 138.04 0.25ZM143.34-29.6L143.34-29.6Q141.94-29.6 141.19-30.45 140.44-31.3 140.44-32.7L140.44-32.7Q140.44-34.15 141.19-35.02 141.94-35.9 143.34-35.9L143.34-35.9Q144.74-35.9 145.49-35.08 146.24-34.25 146.24-32.7L146.24-32.7Q146.24-31.3 145.51-30.45 144.79-29.6 143.34-29.6ZM165.09 0.5L165.09 0.5Q161.34 0.5 158.79-1.15 156.24-2.8 154.96-5.7 153.69-8.6 153.69-12.25L153.69-12.25Q153.69-15.95 154.84-18.85 155.99-21.75 158.39-23.43 160.79-25.1 164.44-25.1L164.44-25.1Q167.94-25.1 169.99-23.65 172.04-22.2 172.96-19.6 173.89-17 173.89-13.6L173.89-13.6 173.09-12 156.89-12 156.89-14.25 171.34-15.35 169.74-13.6Q169.74-14.25 169.76-14.88 169.79-15.5 169.79-16.25L169.79-16.25Q169.79-18.9 168.44-20.8 167.09-22.7 164.29-22.7L164.29-22.7Q162.44-22.7 161.19-21.78 159.94-20.85 159.24-19.3 158.54-17.75 158.24-15.98 157.94-14.2 157.94-12.45L157.94-12.45Q157.94-10.8 158.34-9.08 158.74-7.35 159.59-5.85 160.44-4.35 161.71-3.45 162.99-2.55 164.79-2.55L164.79-2.55Q167.14-2.55 169.26-3.28 171.39-4 172.49-4.65L172.49-4.65 173.79-2.45Q173.94-2.6 173.44-2.18 172.94-1.75 171.81-1.13 170.69-0.5 169.01 0 167.34 0.5 165.09 0.5ZM177.53 0.25L177.53 0.25 177.28-2.15 182.88-3.3 180.88-1.45Q180.98-1.85 181.16-2.85 181.33-3.85 181.51-4.98 181.68-6.1 181.68-6.7L181.68-6.7 181.68-30.9Q181.68-31.55 181.56-32.58 181.43-33.6 181.26-34.7 181.08-35.8 180.93-36.55L180.93-36.55 182.88-34.25 177.38-35.45 177.63-37.95 182.08-37.8 184.83-37.8 185.78-36.9Q185.73-36.15 185.66-34.83 185.58-33.5 185.53-32.05 185.48-30.6 185.48-29.4L185.48-29.4 185.48-8.2Q185.48-6.2 185.63-4.17 185.78-2.15 185.93-1.25L185.93-1.25 184.08-3.1 189.73-2.6 189.38 0 183.03 0Q182.53 0 181.58 0.05 180.63 0.1 179.56 0.15 178.48 0.2 177.53 0.25Z" opacity="1" transform="matrix(1,0,0,1,0,0)" fill="#7fc37e" class="wordmark-text-0" data-fill-palette-color="primary" id="text-0"></path></svg></g></svg></g></svg></g></svg></g><g></g></svg></g></svg></g></svg></g></svg></g><defs></defs></svg><rect width="320" height="360" fill="none" stroke="none" visibility="hidden"></rect></g></svg></g></svg>