<svg xmlns="http://www.w3.org/2000/svg" version="1.1" xmlns:xlink="http://www.w3.org/1999/xlink" xmlns:svgjs="http://svgjs.dev/svgjs" width="2000" height="1500" viewBox="0 0 2000 1500"><rect width="2000" height="1500" fill="#ececea"></rect><g transform="matrix(0.75,0,0,0.75,249.090909090909,282.7536437246963)"><svg viewBox="0 0 396 247" data-background-color="#ececea" preserveAspectRatio="xMidYMid meet" height="1247" width="2000" xmlns="http://www.w3.org/2000/svg" xmlns:xlink="http://www.w3.org/1999/xlink"><g id="tight-bounds" transform="matrix(1,0,0,1,0.2400000000000091,-0.09999999999999432)"><svg viewBox="0 0 395.52 247.2" height="247.2" width="395.52"><g><svg></svg></g><g><svg viewBox="0 0 395.52 247.2" height="247.2" width="395.52"><g transform="matrix(1,0,0,1,75.54432,69.06337615215801)"><svg viewBox="0 0 244.43135999999998 109.07324769568397" height="109.07324769568397" width="244.43135999999998"><g><svg viewBox="0 0 244.43135999999998 109.07324769568397" height="109.07324769568397" width="244.43135999999998"><g><svg viewBox="0 0 244.43135999999998 109.07324769568397" height="109.07324769568397" width="244.43135999999998"><g><svg viewBox="0 0 244.43135999999998 109.07324769568397" height="109.07324769568397" width="244.43135999999998"><g id="textblocktransform"><svg viewBox="0 0 244.43135999999998 109.07324769568397" height="109.07324769568397" width="244.43135999999998" id="textblock"><g><svg viewBox="0 0 244.43135999999998 109.07324769568397" height="109.07324769568397" width="244.43135999999998"><g transform="matrix(1,0,0,1,0,0)"><svg width="244.43135999999998" viewBox="1.95 -29.3 66.75 29.79" height="109.07324769568397" data-palette-color="#009b7d"><path d="M23.73-20.51L24.71-20.51 24.46-29.3 1.95-29.3 1.95-28.03 5.86-28.03 5.86-1.27 1.95-1.27 1.95 0 24.46 0 24.71-8.79 23.73-8.79 23.05-6.49Q21.83-2.34 19.43-1.51L19.43-1.51Q18.7-1.27 17.87-1.27L17.87-1.27 10.06-1.27 10.06-14.4 20.12-14.4 20.12-15.82 10.06-15.82 10.06-28.03 17.87-28.03Q21.39-28.03 22.9-23.29L22.9-23.29Q23-23 23.05-22.8L23.05-22.8 23.73-20.51ZM41.55-1.27L32.76-1.27 45.99-19.97 45.99-21 29.49-21 29.05-14.65 29.78-14.65 30.95-17.33Q32.03-19.68 34.08-19.73L34.08-19.73 41.94-19.73 28.22-1.07 28.22 0 46.04 0 46.19-7.37 45.51-7.37 44.92-4.69Q44.38-2 42.43-1.42L42.43-1.42Q41.99-1.27 41.55-1.27L41.55-1.27ZM59.91-20.02L59.91-20.02Q63.33-20.02 64.45-17.14L64.45-17.14Q64.84-16.21 64.84-15.14L64.84-15.14Q64.84-12.7 62.5-12.16L62.5-12.16Q61.27-11.91 59.03-11.96L59.03-11.96 53.85-12.11Q54.1-17.72 57.51-19.43L57.51-19.43Q58.64-20.02 59.91-20.02ZM68.4-4.69L68.4-4.69 67.18-5.13Q65.47-1.42 61.66-0.93L61.66-0.93Q61.18-0.88 60.74-0.88L60.74-0.88Q55.61-0.88 54.29-6.98L54.29-6.98Q53.9-8.69 53.85-10.74L53.85-10.74 59.71-10.64Q65.67-10.55 67.38-11.77L67.38-11.77Q68.7-12.74 68.7-14.55L68.7-14.55Q68.7-17.87 65.33-19.82L65.33-19.82Q62.93-21.24 59.81-21.24L59.81-21.24Q53.71-21.24 51.07-16.16L51.07-16.16Q49.7-13.53 49.7-10.21L49.7-10.21Q49.7-4.15 54.05-1.22L54.05-1.22Q56.64 0.49 59.96 0.49L59.96 0.49Q65.23 0.49 67.72-3.32L67.72-3.32Q68.11-4 68.4-4.69Z" opacity="1" transform="matrix(1,0,0,1,0,0)" fill="#009b7d" class="wordmark-text-0" data-fill-palette-color="primary" id="text-0"></path></svg></g></svg></g></svg></g></svg></g></svg></g></svg></g></svg></g><path d="M232.25 63.063L232.25 13.192 11.433 13.192 11.433 234.008 232.25 234.008 232.25 184.137 222.414 184.137 222.414 224.172 21.27 224.172 21.27 23.028 222.414 23.028 222.414 63.063Z" fill="#009b7d" stroke="transparent" data-fill-palette-color="tertiary"></path></svg></g><defs></defs></svg><rect width="395.52" height="247.2" fill="none" stroke="none" visibility="hidden"></rect></g></svg></g></svg>